<svg width="20" height="16" viewBox="0 0 20 16" fill="none" xmlns="http://www.w3.org/2000/svg">
<path d="M18.6288 8.02557V7.65258C18.6288 6.96546 18.2731 6.3602 17.7364 6.0102V1.94143C17.7364 0.870917 16.8655 0 15.795 0H3.78995C2.71943 0 1.84848 0.870917 1.84848 1.94143V6.01016C1.31181 6.36016 0.956065 6.96542 0.956065 7.65254V8.02553C0.40654 8.17024 0 8.67134 0 9.26569V13.6301C0 14.3167 0.542487 14.8789 1.22134 14.9108V15.4273C1.22134 15.7436 1.47774 16 1.79401 16C2.11028 16 2.36668 15.7436 2.36668 15.4273V14.9123H17.2182V15.4273C17.2182 15.7436 17.4746 16 17.7909 16C18.1071 16 18.3635 15.7436 18.3635 15.4273V14.9108C19.0424 14.8788 19.5849 14.3167 19.5849 13.63V9.26569C19.5849 8.6713 19.1784 8.17024 18.6288 8.02557ZM2.99385 1.94143C2.99385 1.50245 3.35097 1.14534 3.78995 1.14534H15.795C16.2339 1.14534 16.5911 1.50245 16.5911 1.94143V5.69267H15.8275V4.68328C15.8275 3.97677 15.2527 3.40196 14.5462 3.40196H11.4647C10.7582 3.40196 10.1834 3.97677 10.1834 4.68328V5.69267H9.40156V4.68328C9.40156 3.97677 8.82675 3.40196 8.12024 3.40196H5.03876C4.33221 3.40196 3.75744 3.97677 3.75744 4.68328V5.69267H2.99385V1.94143ZM14.6821 4.68324V5.55669C14.6821 5.63166 14.6211 5.69263 14.5462 5.69263H11.4647C11.3897 5.69263 11.3287 5.63162 11.3287 5.55669V4.68324C11.3287 4.60827 11.3897 4.5473 11.4647 4.5473H14.5462C14.6211 4.5473 14.6821 4.60827 14.6821 4.68324ZM8.25619 4.68324V5.55669C8.25619 5.63166 8.19518 5.69263 8.12024 5.69263H5.03876C4.96378 5.69263 4.90281 5.63162 4.90281 5.55669V4.68324C4.90281 4.60827 4.96382 4.5473 5.03876 4.5473H8.12024C8.19518 4.5473 8.25619 4.60827 8.25619 4.68324ZM2.10144 7.65254C2.10144 7.20339 2.46686 6.83801 2.91601 6.83801H16.6689C17.1181 6.83801 17.4835 7.20343 17.4835 7.65254V7.98334H2.10144V7.65254ZM18.4395 13.63C18.4395 13.7055 18.3781 13.767 18.3026 13.767H1.28231C1.20681 13.767 1.14534 13.7055 1.14534 13.63V9.26569C1.14534 9.19018 1.20677 9.12875 1.28231 9.12875H18.3026C18.3781 9.12875 18.4396 9.19018 18.4396 9.26569V13.63H18.4395Z" fill="#0089B1"/>
</svg>
