<svg width="17" height="16" viewBox="0 0 17 16" fill="none" xmlns="http://www.w3.org/2000/svg">
<g clip-path="url(#clip0)">
<path d="M16.5454 13.7101C16.475 13.3722 16.1441 13.1552 15.8061 13.2256C15.4681 13.2959 15.2512 13.6269 15.3216 13.9648C15.3621 14.1595 15.3139 14.359 15.1892 14.5123C15.1171 14.6011 14.9561 14.75 14.6893 14.75H2.48258C2.21577 14.75 2.0548 14.6011 1.98261 14.5123C1.85796 14.359 1.80971 14.1595 1.85024 13.9648C2.49886 10.8494 5.24683 8.57356 8.42024 8.49681C8.47521 8.49894 8.53043 8.5 8.58593 8.5C8.64161 8.5 8.69705 8.49891 8.75224 8.49678C10.9876 8.55041 13.0537 9.68262 14.305 11.5487C14.4972 11.8354 14.8854 11.9119 15.1721 11.7197C15.4588 11.5275 15.5354 11.1393 15.3432 10.8526C14.3176 9.32306 12.8285 8.21088 11.1306 7.65203C12.1652 6.87613 12.8359 5.63991 12.8359 4.25C12.8359 1.90656 10.9294 0 8.58593 0C6.24246 0 4.33593 1.90656 4.33593 4.25C4.33593 5.64075 5.00743 6.87762 6.04321 7.65347C5.09421 7.96591 4.20374 8.45206 3.42436 9.09313C1.99524 10.2687 1.00158 11.9083 0.626488 13.7101C0.508925 14.2747 0.649769 14.8545 1.01283 15.301C1.37411 15.7452 1.90983 16 2.48258 16H14.6892C15.262 16 15.7977 15.7452 16.159 15.301C16.5221 14.8545 16.6629 14.2747 16.5454 13.7101ZM5.58593 4.25C5.58593 2.59578 6.93171 1.25 8.58593 1.25C10.2401 1.25 11.5859 2.59578 11.5859 4.25C11.5859 5.85328 10.3217 7.16684 8.73777 7.24619C8.68724 7.24525 8.63661 7.24478 8.58593 7.24478C8.53549 7.24478 8.48505 7.24528 8.43468 7.24622C6.85046 7.16719 5.58593 5.8535 5.58593 4.25Z" fill="white"/>
</g>
<defs>
<clipPath id="clip0">
<rect width="16" height="16" fill="white" transform="translate(0.585938)"/>
</clipPath>
</defs>
</svg>
