<svg width="17" height="16" viewBox="0 0 17 16" fill="none" xmlns="http://www.w3.org/2000/svg">
<g clip-path="url(#clip0)">
<path d="M16.1293 13.7101C16.059 13.3722 15.7281 13.1552 15.3901 13.2256C15.0521 13.2959 14.8352 13.6269 14.9056 13.9648C14.9461 14.1595 14.8978 14.359 14.7732 14.5123C14.701 14.6011 14.5401 14.75 14.2733 14.75H2.06657C1.79975 14.75 1.63878 14.6011 1.5666 14.5123C1.44194 14.359 1.39369 14.1595 1.43422 13.9648C2.08285 10.8494 4.83082 8.57356 8.00422 8.49681C8.05919 8.49894 8.11441 8.5 8.16991 8.5C8.2256 8.5 8.28103 8.49891 8.33622 8.49678C10.5716 8.55041 12.6377 9.68262 13.8889 11.5487C14.0812 11.8354 14.4694 11.9119 14.7561 11.7197C15.0428 11.5275 15.1194 11.1393 14.9272 10.8526C13.9016 9.32306 12.4125 8.21088 10.7145 7.65203C11.7492 6.87613 12.4199 5.63991 12.4199 4.25C12.4199 1.90656 10.5134 0 8.16991 0C5.82644 0 3.91991 1.90656 3.91991 4.25C3.91991 5.64075 4.59141 6.87762 5.62719 7.65347C4.67819 7.96591 3.78772 8.45206 3.00835 9.09313C1.57922 10.2687 0.585566 11.9083 0.210472 13.7101C0.0929098 14.2747 0.233754 14.8545 0.596816 15.301C0.958097 15.7452 1.49382 16 2.06657 16H14.2732C14.846 16 15.3817 15.7452 15.743 15.301C16.1061 14.8545 16.2469 14.2747 16.1293 13.7101ZM5.16991 4.25C5.16991 2.59578 6.51569 1.25 8.16991 1.25C9.82413 1.25 11.1699 2.59578 11.1699 4.25C11.1699 5.85328 9.90569 7.16684 8.32175 7.24619C8.27122 7.24525 8.2206 7.24478 8.16991 7.24478C8.11947 7.24478 8.06904 7.24528 8.01866 7.24622C6.43444 7.16719 5.16991 5.8535 5.16991 4.25Z" fill="#0089B1"/>
</g>
<defs>
<clipPath id="clip0">
<rect width="16" height="16" fill="white" transform="translate(0.169922)"/>
</clipPath>
</defs>
</svg>
