<svg width="22" height="22" viewBox="0 0 22 22" fill="none" xmlns="http://www.w3.org/2000/svg">
<path d="M6.63398 1.83301H15.034C18.234 1.83301 20.834 4.43301 20.834 7.63301V16.033C20.834 17.5713 20.2229 19.0465 19.1352 20.1342C18.0475 21.2219 16.5722 21.833 15.034 21.833H6.63398C3.43398 21.833 0.833984 19.233 0.833984 16.033V7.63301C0.833984 6.09475 1.44505 4.6195 2.53276 3.53179C3.62048 2.44408 5.09573 1.83301 6.63398 1.83301ZM6.43398 3.83301C5.4792 3.83301 4.56353 4.21229 3.8884 4.88742C3.21327 5.56255 2.83398 6.47823 2.83398 7.43301V16.233C2.83398 18.223 4.44398 19.833 6.43398 19.833H15.234C16.1888 19.833 17.1044 19.4537 17.7796 18.7786C18.4547 18.1035 18.834 17.1878 18.834 16.233V7.43301C18.834 5.44301 17.224 3.83301 15.234 3.83301H6.43398ZM16.084 5.33301C16.4155 5.33301 16.7334 5.4647 16.9679 5.69912C17.2023 5.93354 17.334 6.25149 17.334 6.58301C17.334 6.91453 17.2023 7.23247 16.9679 7.46689C16.7334 7.70131 16.4155 7.83301 16.084 7.83301C15.7525 7.83301 15.4345 7.70131 15.2001 7.46689C14.9657 7.23247 14.834 6.91453 14.834 6.58301C14.834 6.25149 14.9657 5.93354 15.2001 5.69912C15.4345 5.4647 15.7525 5.33301 16.084 5.33301ZM10.834 6.83301C12.1601 6.83301 13.4318 7.35979 14.3695 8.29747C15.3072 9.23516 15.834 10.5069 15.834 11.833C15.834 13.1591 15.3072 14.4309 14.3695 15.3685C13.4318 16.3062 12.1601 16.833 10.834 16.833C9.5079 16.833 8.23613 16.3062 7.29845 15.3685C6.36077 14.4309 5.83398 13.1591 5.83398 11.833C5.83398 10.5069 6.36077 9.23516 7.29845 8.29747C8.23613 7.35979 9.5079 6.83301 10.834 6.83301ZM10.834 8.83301C10.0383 8.83301 9.27527 9.14908 8.71266 9.71169C8.15005 10.2743 7.83398 11.0374 7.83398 11.833C7.83398 12.6287 8.15005 13.3917 8.71266 13.9543C9.27527 14.5169 10.0383 14.833 10.834 14.833C11.6296 14.833 12.3927 14.5169 12.9553 13.9543C13.5179 13.3917 13.834 12.6287 13.834 11.833C13.834 11.0374 13.5179 10.2743 12.9553 9.71169C12.3927 9.14908 11.6296 8.83301 10.834 8.83301Z" fill="#0089B1"/>
</svg>
